<?xml version="1.0" encoding="UTF-8"?>
<svg width="185px" height="185px" viewBox="0 0 185 185" version="1.1" xmlns="http://www.w3.org/2000/svg" xmlns:xlink="http://www.w3.org/1999/xlink">
    <!-- Generator: Sketch 46.2 (44496) - http://www.bohemiancoding.com/sketch -->
    <title>Bogdebat_ikon</title>
    <desc>Created with Sketch.</desc>
    <defs></defs>
    <g id="Page-1" stroke="none" stroke-width="1" fill="none" fill-rule="evenodd">
        <g id="Desktop_bog" transform="translate(-179.000000, -2329.000000)">
            <g id="Bogdebat_ikon" transform="translate(179.000000, 2329.000000)">
                <circle id="Oval" fill="#3B3B3D" fill-rule="evenodd" cx="92.5" cy="92.5" r="92.5"></circle>
                <g id="Læseklub_ikon" transform="translate(29.780488, 32.487805)" stroke-width="1" fill-rule="evenodd" fill="#FFFFFF">
                    <g id="Page-1" transform="translate(38.730496, 0.000000)">
                        <path d="M37.9855709,51.6081081 C37.5742478,51.6081081 37.2406453,51.2845046 37.2406453,50.88551 L37.2406453,42.2918914 C37.2341893,42.2700931 37.1755884,42.2169821 37.0740303,42.1966289 L26.6557493,45.2901919 C25.8489949,45.5294923 24.9979174,45.5244341 24.1942669,45.2754991 L14.2630431,42.1973515 C14.1637197,42.2183069 14.1061121,42.2708157 14.0995319,42.2936979 L14.0997803,50.88551 C14.0997803,51.2845046 13.7663019,51.6081081 13.3548547,51.6081081 C12.9435316,51.6081081 12.6099291,51.2845046 12.6099291,50.88551 L12.6099291,42.2918914 C12.6099291,41.4380213 13.3907352,40.7432432 14.3504477,40.7432432 C14.4274234,40.7432432 14.5037782,40.7549252 14.5771534,40.7775667 L24.6476782,43.8988292 C25.160932,44.0580417 25.7046035,44.0611729 26.2197195,43.9081026 L36.7720871,40.7749171 C36.8426067,40.7539618 36.9162302,40.7432432 36.9899778,40.7432432 C37.9496903,40.7432432 38.7304965,41.4380213 38.7304965,42.2918914 L38.7304965,50.88551 C38.7304965,51.2845046 38.3968939,51.6081081 37.9855709,51.6081081" id="Fill-1"></path>
                        <path d="M25.4502114,66.0945946 C24.9667547,66.0945946 24.4839188,66.0205374 24.014864,65.8725407 L14.4205949,62.8443187 C13.3374731,62.5024075 12.6099291,61.5455506 12.6099291,60.4631849 C12.6099291,60.0730011 12.9435316,59.7567568 13.3548547,59.7567568 C13.7663019,59.7567568 14.0997803,60.0730011 14.0997803,60.4631849 C14.0997803,60.9362563 14.4178635,61.354344 14.8910154,61.5037536 L24.4854086,64.5319755 C25.1044418,64.7274207 25.7604729,64.7310705 26.3822375,64.5423365 L36.4527623,61.4867993 C36.9239278,61.3437476 37.2406453,60.9324887 37.2406453,60.4631849 C37.2406453,60.0730011 37.5741236,59.7567568 37.9855709,59.7567568 C38.3968939,59.7567568 38.7304965,60.0730011 38.7304965,60.4631849 C38.7304965,61.5494359 37.9976138,62.5014656 36.9066703,62.8325449 L26.8361455,65.8880821 C26.3823616,66.0257179 25.9161624,66.0945946 25.4502114,66.0945946" id="Fill-3"></path>
                        <path d="M25.6702128,1.47137204 C19.2758335,1.47137204 14.0736762,6.70075091 14.0736762,13.1284397 C14.0736762,19.5561285 19.2758335,24.7853847 25.6702128,24.7853847 C32.0645921,24.7853847 37.2667493,19.5561285 37.2667493,13.1284397 C37.2667493,6.70075091 32.0645921,1.47137204 25.6702128,1.47137204 M25.6702128,26.2567568 C18.4686989,26.2567568 12.6099291,20.3673449 12.6099291,13.1284397 C12.6099291,5.88941184 18.4686989,0 25.6702128,0 C32.8717266,0 38.7304965,5.88941184 38.7304965,13.1284397 C38.7304965,20.3673449 32.8717266,26.2567568 25.6702128,26.2567568" id="Fill-5"></path>
                        <g id="Group-9" transform="translate(0.000000, 30.783784)">
                            <path d="M45.9820535,26.1426064 L35.1488561,26.1426064 C34.7427889,26.1426064 34.413671,25.8174824 34.413671,25.4166131 C34.413671,25.0157439 34.7427889,24.6906199 35.1488561,24.6906199 L45.9820535,24.6906199 C47.5617212,24.6906199 48.8143541,24.1074053 49.4187987,23.0905307 C50.0640462,22.0051707 49.910515,20.5070836 48.9863874,18.8720258 C48.9797707,18.8604099 48.9733991,18.848431 48.9675176,18.8363311 C48.9102957,18.7207772 43.2433665,7.25105143 42.0035994,5.38210274 C41.9909787,5.36274292 41.9790932,5.3430201 41.968188,5.32269229 C40.2308231,2.06600746 37.7376879,1.57196904 36.3877655,1.57196904 C36.3788208,1.57196904 36.3699986,1.57209004 36.3610538,1.57209004 L36.31633,1.57221103 L15.5338728,1.57209004 C15.5251731,1.57209004 15.5159833,1.57196904 15.5071611,1.57196904 C14.1380014,1.57196904 11.5737983,2.07012142 9.58046649,5.35717697 C9.57568779,5.3650419 9.57078655,5.37290683 9.56576279,5.38052975 C7.918213,7.87758362 6.18734223,11.4759693 4.66011774,14.6509799 C3.81342957,16.4113926 3.01342566,18.0742802 2.29196403,19.4226917 C1.67771688,20.570608 1.08920122,22.1743272 1.77329095,23.2955028 C2.33031618,24.2081973 3.68121879,24.6906199 5.67994199,24.6906199 L15.6910799,24.6906199 C16.0971471,24.6906199 16.426265,25.0157439 16.426265,25.4166131 C16.426265,25.8174824 16.0971471,26.1426064 15.6910799,26.1426064 L5.67994199,26.1426064 C2.46828592,26.1426064 1.09790091,25.00195 0.514041416,24.0448488 C-0.0592804245,23.1056555 -0.441576672,21.4236501 0.991911725,18.744372 C1.69879219,17.4233062 2.4920569,15.7740915 3.33200587,14.0279566 C4.87662975,10.8165254 6.62698292,7.17736311 8.32624073,4.59936099 C10.6901059,0.710699016 13.8248126,0.119982488 15.506916,0.119982488 C15.5184339,0.119982488 15.5297068,0.120103487 15.5408571,0.120103487 L15.5795768,0.120224486 L36.3538245,0.120103487 C36.36571,0.120103487 36.3775955,0.119982488 36.3893584,0.119982488 C39.2178605,0.119982488 41.7163871,1.75649233 43.253169,4.61593784 C44.5648617,6.62113126 49.9437209,17.5007455 50.2803131,18.1823322 C51.4599176,20.2787587 51.6043815,22.2822582 50.686748,23.8257199 C49.8115101,25.2981552 48.0966909,26.1426064 45.9820535,26.1426064" id="Fill-7"></path>
                        </g>
                    </g>
                    <g id="Page-1" transform="translate(90.070922, 19.918919)">
                        <path d="M27.3825569,37.1216216 C27.0847023,37.1216216 26.8431281,36.878919 26.8431281,36.579673 L26.8431281,30.1344591 C26.838453,30.1181103 26.7960179,30.0782771 26.7224758,30.0630122 L19.1782034,32.3831845 C18.5940019,32.5626598 17.9777044,32.5588661 17.3957506,32.3721648 L10.2041748,30.0635542 C10.1322509,30.0792707 10.0905351,30.1186523 10.0857701,30.135814 L10.0859499,36.579673 C10.0859499,36.878919 9.84446562,37.1216216 9.54652107,37.1216216 C9.24866643,37.1216216 9.0070922,36.878919 9.0070922,36.579673 L9.0070922,30.1344591 C9.0070922,29.4940565 9.57250356,28.972973 10.2674678,28.972973 C10.3232087,28.972973 10.3785002,28.9817345 10.4316339,28.9987155 L17.724083,31.3396625 C18.0957495,31.4590718 18.4894426,31.4614202 18.8624577,31.3466175 L26.5038273,28.9967284 C26.5548932,28.9810119 26.6082068,28.972973 26.6616103,28.972973 C27.3565745,28.972973 27.9219858,29.4940565 27.9219858,30.1344591 L27.9219858,36.579673 C27.9219858,36.878919 27.6804116,37.1216216 27.3825569,37.1216216" id="Fill-1"></path>
                        <path d="M18.3052277,47.0810811 C17.9551383,47.0810811 17.6054985,47.0281831 17.2658381,46.9224711 L10.318264,44.7594554 C9.5339344,44.5152331 9.0070922,43.8317639 9.0070922,43.0586456 C9.0070922,42.7799429 9.24866643,42.5540541 9.54652107,42.5540541 C9.84446562,42.5540541 10.0859499,42.7799429 10.0859499,43.0586456 C10.0859499,43.3965537 10.3162861,43.6951878 10.6589133,43.8019089 L17.6065774,45.9649246 C18.0548428,46.1045283 18.5298998,46.1071353 18.9801431,45.9723253 L26.2725921,43.7897987 C26.6137809,43.6876189 26.8431281,43.3938626 26.8431281,43.0586456 C26.8431281,42.7799429 27.0846124,42.5540541 27.3825569,42.5540541 C27.6804116,42.5540541 27.9219858,42.7799429 27.9219858,43.0586456 C27.9219858,43.8345392 27.3912777,44.5145604 26.6012841,44.7510456 L19.3088351,46.9335722 C18.980233,47.0318834 18.6426404,47.0810811 18.3052277,47.0810811" id="Fill-3"></path>
                        <path d="M18.464539,1.06547631 C13.8341264,1.06547631 10.067047,4.8522679 10.067047,9.50680115 C10.067047,14.1613344 13.8341264,17.9480372 18.464539,17.9480372 C23.0949516,17.9480372 26.862031,14.1613344 26.862031,9.50680115 C26.862031,4.8522679 23.0949516,1.06547631 18.464539,1.06547631 M18.464539,19.0135135 C13.2496497,19.0135135 9.0070922,14.748767 9.0070922,9.50680115 C9.0070922,4.2647465 13.2496497,0 18.464539,0 C23.6794284,0 27.9219858,4.2647465 27.9219858,9.50680115 C27.9219858,14.748767 23.6794284,19.0135135 18.464539,19.0135135" id="Fill-5"></path>
                        <g id="Group-9" transform="translate(0.000000, 21.729730)">
                            <path d="M33.0748104,18.9308529 L25.2825105,18.9308529 C24.9904271,18.9308529 24.7536932,18.6954183 24.7536932,18.4051337 C24.7536932,18.114849 24.9904271,17.8794144 25.2825105,17.8794144 L33.0748104,17.8794144 C34.2110626,17.8794144 35.1120792,17.4570866 35.5468552,16.7207291 C36.0109806,15.9347788 35.9005459,14.8499571 35.2358225,13.6659497 C35.2310631,13.6575382 35.2264801,13.6488638 35.2222495,13.6401018 C35.1810899,13.5564248 31.1048777,5.25076138 30.2131153,3.89738474 C30.2040373,3.88336556 30.1954881,3.86908352 30.187644,3.85436338 C28.9379604,1.49607437 27.1446527,1.13832241 26.1736559,1.13832241 C26.167222,1.13832241 26.1608762,1.13841003 26.1544422,1.13841003 L26.1222725,1.13849765 L11.1734875,1.13841003 C11.1672298,1.13841003 11.1606196,1.13832241 11.1542738,1.13832241 C10.1694396,1.13832241 8.32501284,1.49905344 6.89121274,3.87933505 C6.88777543,3.88503034 6.88424998,3.89072563 6.88063639,3.89624568 C5.69555672,5.70445711 4.45054441,8.31018466 3.35201451,10.6093303 C2.7429932,11.8841119 2.16755179,13.0882718 1.6486057,14.0647078 C1.20677881,14.8959575 0.783460526,16.0572714 1.27552507,16.8691572 C1.67619234,17.5300739 2.64789422,17.8794144 4.08557231,17.8794144 L11.2865662,17.8794144 C11.5786497,17.8794144 11.8153836,18.114849 11.8153836,18.4051337 C11.8153836,18.6954183 11.5786497,18.9308529 11.2865662,18.9308529 L4.08557231,18.9308529 C1.77543373,18.9308529 0.789718198,18.1048603 0.369749089,17.4117871 C-0.0426403054,16.7316816 -0.317625325,15.5136777 0.713480364,13.5735107 C1.22193824,12.6168769 1.79253216,11.422618 2.39670598,10.1581755 C3.50775122,7.83265632 4.76677719,5.19740087 5.98905035,3.33057175 C7.68937439,0.514644115 9.94416342,0.086883871 11.1540975,0.086883871 C11.1623823,0.086883871 11.1704908,0.0869714908 11.1785112,0.0869714908 L11.2063623,0.0870591107 L26.1492422,0.0869714908 C26.1577914,0.0869714908 26.1663406,0.086883871 26.1748017,0.086883871 C28.2093383,0.086883871 30.006524,1.27194272 31.1119286,3.34257568 C32.0554268,4.79461229 35.9244308,12.6729536 36.166541,13.1665164 C37.0150285,14.6846184 37.1189411,16.1354283 36.4588889,17.2531075 C35.8293318,18.3193538 34.5958654,18.9308529 33.0748104,18.9308529" id="Fill-7"></path>
                        </g>
                    </g>
                    <g id="Page-1" transform="translate(0.000000, 19.918919)">
                        <path d="M27.3825569,37.1216216 C27.0847023,37.1216216 26.8431281,36.878919 26.8431281,36.579673 L26.8431281,30.1344591 C26.838453,30.1181103 26.7960179,30.0782771 26.7224758,30.0630122 L19.1782034,32.3831845 C18.5940019,32.5626598 17.9777044,32.5588661 17.3957506,32.3721648 L10.2041748,30.0635542 C10.1322509,30.0792707 10.0905351,30.1186523 10.0857701,30.135814 L10.0859499,36.579673 C10.0859499,36.878919 9.84446562,37.1216216 9.54652107,37.1216216 C9.24866643,37.1216216 9.0070922,36.878919 9.0070922,36.579673 L9.0070922,30.1344591 C9.0070922,29.4940565 9.57250356,28.972973 10.2674678,28.972973 C10.3232087,28.972973 10.3785002,28.9817345 10.4316339,28.9987155 L17.724083,31.3396625 C18.0957495,31.4590718 18.4894426,31.4614202 18.8624577,31.3466175 L26.5038273,28.9967284 C26.5548932,28.9810119 26.6082068,28.972973 26.6616103,28.972973 C27.3565745,28.972973 27.9219858,29.4940565 27.9219858,30.1344591 L27.9219858,36.579673 C27.9219858,36.878919 27.6804116,37.1216216 27.3825569,37.1216216" id="Fill-1"></path>
                        <path d="M18.3052277,47.0810811 C17.9551383,47.0810811 17.6054985,47.0281831 17.2658381,46.9224711 L10.318264,44.7594554 C9.5339344,44.5152331 9.0070922,43.8317639 9.0070922,43.0586456 C9.0070922,42.7799429 9.24866643,42.5540541 9.54652107,42.5540541 C9.84446562,42.5540541 10.0859499,42.7799429 10.0859499,43.0586456 C10.0859499,43.3965537 10.3162861,43.6951878 10.6589133,43.8019089 L17.6065774,45.9649246 C18.0548428,46.1045283 18.5298998,46.1071353 18.9801431,45.9723253 L26.2725921,43.7897987 C26.6137809,43.6876189 26.8431281,43.3938626 26.8431281,43.0586456 C26.8431281,42.7799429 27.0846124,42.5540541 27.3825569,42.5540541 C27.6804116,42.5540541 27.9219858,42.7799429 27.9219858,43.0586456 C27.9219858,43.8345392 27.3912777,44.5145604 26.6012841,44.7510456 L19.3088351,46.9335722 C18.980233,47.0318834 18.6426404,47.0810811 18.3052277,47.0810811" id="Fill-3"></path>
                        <path d="M18.464539,1.06547631 C13.8341264,1.06547631 10.067047,4.8522679 10.067047,9.50680115 C10.067047,14.1613344 13.8341264,17.9480372 18.464539,17.9480372 C23.0949516,17.9480372 26.862031,14.1613344 26.862031,9.50680115 C26.862031,4.8522679 23.0949516,1.06547631 18.464539,1.06547631 M18.464539,19.0135135 C13.2496497,19.0135135 9.0070922,14.748767 9.0070922,9.50680115 C9.0070922,4.2647465 13.2496497,0 18.464539,0 C23.6794284,0 27.9219858,4.2647465 27.9219858,9.50680115 C27.9219858,14.748767 23.6794284,19.0135135 18.464539,19.0135135" id="Fill-5"></path>
                        <g id="Group-9" transform="translate(0.000000, 21.729730)">
                            <path d="M33.0748104,18.9308529 L25.2825105,18.9308529 C24.9904271,18.9308529 24.7536932,18.6954183 24.7536932,18.4051337 C24.7536932,18.114849 24.9904271,17.8794144 25.2825105,17.8794144 L33.0748104,17.8794144 C34.2110626,17.8794144 35.1120792,17.4570866 35.5468552,16.7207291 C36.0109806,15.9347788 35.9005459,14.8499571 35.2358225,13.6659497 C35.2310631,13.6575382 35.2264801,13.6488638 35.2222495,13.6401018 C35.1810899,13.5564248 31.1048777,5.25076138 30.2131153,3.89738474 C30.2040373,3.88336556 30.1954881,3.86908352 30.187644,3.85436338 C28.9379604,1.49607437 27.1446527,1.13832241 26.1736559,1.13832241 C26.167222,1.13832241 26.1608762,1.13841003 26.1544422,1.13841003 L26.1222725,1.13849765 L11.1734875,1.13841003 C11.1672298,1.13841003 11.1606196,1.13832241 11.1542738,1.13832241 C10.1694396,1.13832241 8.32501284,1.49905344 6.89121274,3.87933505 C6.88777543,3.88503034 6.88424998,3.89072563 6.88063639,3.89624568 C5.69555672,5.70445711 4.45054441,8.31018466 3.35201451,10.6093303 C2.7429932,11.8841119 2.16755179,13.0882718 1.6486057,14.0647078 C1.20677881,14.8959575 0.783460526,16.0572714 1.27552507,16.8691572 C1.67619234,17.5300739 2.64789422,17.8794144 4.08557231,17.8794144 L11.2865662,17.8794144 C11.5786497,17.8794144 11.8153836,18.114849 11.8153836,18.4051337 C11.8153836,18.6954183 11.5786497,18.9308529 11.2865662,18.9308529 L4.08557231,18.9308529 C1.77543373,18.9308529 0.789718198,18.1048603 0.369749089,17.4117871 C-0.0426403054,16.7316816 -0.317625325,15.5136777 0.713480364,13.5735107 C1.22193824,12.6168769 1.79253216,11.422618 2.39670598,10.1581755 C3.50775122,7.83265632 4.76677719,5.19740087 5.98905035,3.33057175 C7.68937439,0.514644115 9.94416342,0.086883871 11.1540975,0.086883871 C11.1623823,0.086883871 11.1704908,0.0869714908 11.1785112,0.0869714908 L11.2063623,0.0870591107 L26.1492422,0.0869714908 C26.1577914,0.0869714908 26.1663406,0.086883871 26.1748017,0.086883871 C28.2093383,0.086883871 30.006524,1.27194272 31.1119286,3.34257568 C32.0554268,4.79461229 35.9244308,12.6729536 36.166541,13.1665164 C37.0150285,14.6846184 37.1189411,16.1354283 36.4588889,17.2531075 C35.8293318,18.3193538 34.5958654,18.9308529 33.0748104,18.9308529" id="Fill-7"></path>
                        </g>
                    </g>
                </g>
            </g>
        </g>
    </g>
</svg>