<?xml version="1.0" encoding="UTF-8"?>
<svg width="185px" height="185px" viewBox="0 0 185 185" version="1.1" xmlns="http://www.w3.org/2000/svg" xmlns:xlink="http://www.w3.org/1999/xlink">
    <!-- Generator: Sketch 46.2 (44496) - http://www.bohemiancoding.com/sketch -->
    <title>kommentar_ikon</title>
    <desc>Created with Sketch.</desc>
    <defs></defs>
    <g id="Symbols" stroke="none" stroke-width="1" fill="none" fill-rule="evenodd">
        <g id="Skriv-en-kommentar" transform="translate(-156.000000, -13.000000)">
            <g id="kommentar_ikon" transform="translate(156.000000, 13.000000)">
                <circle id="Oval" fill="#3B3B3D" cx="92.5" cy="92.5" r="92.5"></circle>
                <g id="Page-1" stroke-width="1" transform="translate(54.146341, 56.853659)" fill="#FFFFFF">
                    <path d="M39.7073171,23.9146341 C39.7073171,25.6581463 38.2922927,27.0731707 36.5487805,27.0731707 C34.8052683,27.0731707 33.3902439,25.6581463 33.3902439,23.9146341 C33.3902439,22.171122 34.8052683,20.7560976 36.5487805,20.7560976 C38.2922927,20.7560976 39.7073171,22.171122 39.7073171,23.9146341" id="Fill-1"></path>
                    <path d="M51.4390244,23.9146341 C51.4390244,25.6581463 50.024,27.0731707 48.2804878,27.0731707 C46.5369756,27.0731707 45.1219512,25.6581463 45.1219512,23.9146341 C45.1219512,22.171122 46.5369756,20.7560976 48.2804878,20.7560976 C50.024,20.7560976 51.4390244,22.171122 51.4390244,23.9146341" id="Fill-3"></path>
                    <path d="M64.0731707,23.9146341 C64.0731707,25.6581463 62.6581463,27.0731707 60.9146341,27.0731707 C59.171122,27.0731707 57.7560976,25.6581463 57.7560976,23.9146341 C57.7560976,22.171122 59.171122,20.7560976 60.9146341,20.7560976 C62.6581463,20.7560976 64.0731707,22.171122 64.0731707,23.9146341" id="Fill-5"></path>
                    <path d="M75.3717073,39.2364793 C75.3717073,41.8323648 73.258159,43.9448568 70.6609756,43.9448568 L67.5204878,43.9448568 C66.6521429,43.9448568 65.9502439,44.6464051 65.9502439,45.514316 L65.9502439,54.281315 L59.2107571,47.5451962 C59.2107571,47.5451962 59.2091868,47.5436267 59.2076166,47.5420573 L56.068699,44.4047084 C55.7750634,44.1096501 55.3762215,43.9448568 54.9585366,43.9448568 L26.6941463,43.9448568 C24.0969629,43.9448568 21.9834146,41.8323648 21.9834146,39.2364793 L21.9834146,7.84729586 C21.9834146,5.25141039 24.0969629,3.13891835 26.6941463,3.13891835 L70.6609756,3.13891835 C73.258159,3.13891835 75.3717073,5.25141039 75.3717073,7.84729586 L75.3717073,39.2364793 Z M56.5287805,51.7921527 C56.5287805,54.3880382 54.4152322,56.5005302 51.8180488,56.5005302 L23.5536585,56.5005302 C23.1359737,56.5005302 22.7371317,56.6653234 22.4434961,56.9603818 L12.5619512,66.8369883 L12.5619512,58.0699894 C12.5619512,57.2020785 11.8600522,56.5005302 10.9917073,56.5005302 L7.85121951,56.5005302 C5.2540361,56.5005302 3.1404878,54.3880382 3.1404878,51.7921527 L3.1404878,20.4029692 C3.1404878,17.8070838 5.2540361,15.6945917 7.85121951,15.6945917 L18.8429268,15.6945917 L18.8429268,39.2364793 C18.8429268,43.5634783 22.3649839,47.0837752 26.6941463,47.0837752 L54.3084556,47.0837752 L56.5287805,49.3029905 L56.5287805,51.7921527 Z M70.6609756,0 L26.6941463,0 C22.3649839,0 18.8429268,3.52029692 18.8429268,7.84729586 L18.8429268,12.5556734 L7.85121951,12.5556734 C3.52205707,12.5556734 0,16.0759703 0,20.4029692 L0,51.7921527 C0,56.1191516 3.52205707,59.6394486 7.85121951,59.6394486 L9.42146341,59.6394486 L9.42146341,70.6256628 C9.42146341,71.2597243 9.80303268,71.8341463 10.3903039,72.0758431 C10.5850141,72.1574549 10.7891459,72.195122 10.9917073,72.195122 C11.3999707,72.195122 11.8019532,72.0350371 12.1018698,71.7352704 L24.2037395,59.6394486 L51.8180488,59.6394486 C55.9446498,59.6394486 59.3018312,56.4299046 59.609599,52.3822694 L66.4103254,59.179597 C66.710242,59.4793637 67.1122244,59.6394486 67.5204878,59.6394486 C67.7230493,59.6394486 67.927181,59.6017815 68.1218912,59.5201697 C68.7091624,59.278473 69.0907317,58.7040509 69.0907317,58.0699894 L69.0907317,47.0837752 L70.6609756,47.0837752 C74.990138,47.0837752 78.5121951,43.5634783 78.5121951,39.2364793 L78.5121951,7.84729586 C78.5121951,3.52029692 74.990138,0 70.6609756,0 L70.6609756,0 Z" id="Fill-7"></path>
                </g>
            </g>
        </g>
    </g>
</svg>