<?xml version="1.0" encoding="utf-8"?>
<!-- Generator: Adobe Illustrator 19.0.0, SVG Export Plug-In . SVG Version: 6.00 Build 0)  -->
<svg version="1.1" id="Layer_1" xmlns="http://www.w3.org/2000/svg" xmlns:xlink="http://www.w3.org/1999/xlink" x="0px" y="0px"
	  width="366px" height="255px" viewBox="-237 170.3 366 255" preserveAspectRatio="xMinYMid" style="enable-background:new -237 170.3 366 255;" xml:space="preserve">
<style type="text/css">
	.st0{fill:#585859;}
	.st1{filter:url(#Adobe_OpacityMaskFilter);}
	.st2{fill:#FFFFFF;}
	.st3{mask:url(#mask-2);fill:#585859;}
	.st4{filter:url(#Adobe_OpacityMaskFilter_1_);}
	.st5{mask:url(#mask-4);fill:#585859;}
</style>
<title>Litteratur_grafik</title>
<desc>Created with Sketch.</desc>
<polygon id="Fill-1" class="st0" points="-237,170.3 -237,237.3 -194,237.3 -194,224.5 -221.4,224.5 -221.4,170.3 "/>
<path id="Fill-2" class="st0" d="M-186.5,232.2c0-4.7,3.7-7.9,8.8-7.9c5.2,0,8.8,3.2,8.8,7.9c0,4.7-3.6,8-8.8,8
	C-182.7,240.2-186.5,236.9-186.5,232.2L-186.5,232.2z M-185.2,299.4h15.2v-51.6h-15.2V299.4z"/>
<g id="Group-6" transform="translate(69.334640, 146.845364)">
	<g id="Clip-5">
	</g>
	<defs>
		<filter id="Adobe_OpacityMaskFilter" filterUnits="userSpaceOnUse" x="-235" y="224.3" width="46.1" height="54.1">
			<feColorMatrix  type="matrix" values="1 0 0 0 0  0 1 0 0 0  0 0 1 0 0  0 0 0 1 0"/>
		</filter>
	</defs>
	<mask maskUnits="userSpaceOnUse" x="-235" y="224.3" width="46.1" height="54.1" id="mask-2">
		<g class="st1">
			<polygon id="path-1" class="st2" points="-235,278.4 -188.8,278.4 -188.8,224.3 -235,224.3 			"/>
		</g>
	</mask>
	<path id="Fill-4" class="st3" d="M-210.7,224.3c14.6,0,21.9,10.7,21.9,24.8c0,2.7-0.3,5.2-0.6,6.5h-30.8
		c1.3,7.8,6.5,11.2,13.4,11.2c3.8,0,7.4-1.2,11.1-3.4l5.1,9.3c-5.3,3.6-12.1,5.8-18.2,5.8c-14.7,0-26-10-26-27
		C-235,234.6-223,224.3-210.7,224.3L-210.7,224.3z M-201.8,246c0-5.9-2.5-10.1-8.6-10.1c-4.8,0-8.9,3.2-10,10.1H-201.8z"/>
</g>
<path id="Fill-7" class="st0" d="M-116.6,321.4l12.4-0.1l1.1,9l0.4,0c3.7-7,9.3-10.4,14.5-10.4c2.9,0,4.7,0.4,6.1,1l-2.4,13.2
	c-1.9-0.5-3.4-0.8-5.6-0.8c-3.8,0-8.6,2.6-11.2,9.5l0.2,30l-15.2,0.1L-116.6,321.4z"/>
<path id="Fill-9" class="st0" d="M-51.6,338.5c-0.3-4.6-2.6-7.5-8.1-7.5c-4.4,0-8.7,1.8-13.7,4.7l-5.4-10.1c6.5-3.9,13.9-6.8,22-6.8
	c13.2,0,20.4,7.5,20.4,23.3v29.5h-12.4l-1.1-5.3h-0.3c-4.4,3.8-9.2,6.5-15,6.5c-9.3,0-15.2-6.9-15.2-15.6
	C-80.5,346.6-71.9,340.6-51.6,338.5 M-59.9,360.4c3.5,0,5.8-1.7,8.5-4.4l-0.1-9.1c-10.9,1.5-14.4,4.7-14.3,8.7
	C-65.8,358.9-63.6,360.5-59.9,360.4"/>
<path id="Fill-11" class="st0" d="M-30.1,264.7h-7v-11.3l7.9-0.6l1.8-13.7h12.6v13.7h12.3v12h-12.3v20.7c0,5.8,2.6,8.2,6.6,8.2
	c1.7,0,3.5-0.5,4.9-1l2.4,11.1c-2.7,0.8-6.4,1.9-11.4,1.9c-12.8,0-17.7-8-17.7-20V264.7z"/>
<path id="Fill-13" class="st0" d="M12.5,320.1h15.2v30.1c0,7.4,2,9.8,6.4,9.8c3.8,0,6.1-1.7,9.1-5.7v-34.1h15.2v51.6H46.1l-1.1-7.2
	h-0.3c-4.4,5.2-9.1,8.4-16.2,8.4c-11.2,0-16-7.9-16-20.8V320.1z"/>
<path id="Fill-15" class="st0" d="M68.1,372.4h12.4l1,9h0.4c3.7-7,9.3-10.3,14.6-10.3c2.9,0,4.7,0.4,6.1,1.1l-2.5,13.2
	c-1.9-0.5-3.4-0.8-5.6-0.8c-3.8,0-8.6,2.5-11.3,9.5v30H68.1V372.4z"/>
<g id="Group-19" transform="translate(345.470423, 181.654274)">
	<g id="Clip-18">
	</g>
	<defs>
		<filter id="Adobe_OpacityMaskFilter_1_" filterUnits="userSpaceOnUse" x="-235" y="224.3" width="18.5" height="19.2">
			<feColorMatrix  type="matrix" values="1 0 0 0 0  0 1 0 0 0  0 0 1 0 0  0 0 0 1 0"/>
		</filter>
	</defs>
	<mask maskUnits="userSpaceOnUse" x="-235" y="224.3" width="18.5" height="19.2" id="mask-4">
		<g class="st4">
			<polygon id="path-3" class="st2" points="-216.5,224.3 -216.5,243.6 -225.8,243.6 -235,243.6 -235,224.3 			"/>
		</g>
	</mask>
	<path id="Fill-17" class="st5" d="M-225.8,224.3c5.3,0,9.2,4.2,9.2,9.7c0,5.4-3.9,9.6-9.2,9.6c-5.3,0-9.2-4.1-9.2-9.6
		C-235,228.5-231.1,224.3-225.8,224.3"/>
</g>
<path id="Fill-20" class="st0" d="M-227.7,332.2l-7,0.1l-0.1-11.3l7.9-0.7l1.7-13.7l12.6-0.1l0.1,13.7l12.3-0.1l0.1,12l-12.3,0.1
	l0.2,20.7c0,5.8,2.7,8.2,6.7,8.2c1.7,0,3.5-0.5,4.9-1.1l2.5,11.1c-2.7,0.8-6.4,1.9-11.4,2c-12.7,0.1-17.8-7.9-17.9-19.8
	L-227.7,332.2z"/>
<path id="Fill-22" class="st0" d="M-185.5,332.2l-7,0.1l-0.1-11.3l7.9-0.7l1.7-13.7l12.6-0.1l0.1,13.7l12.3-0.1l0.1,12l-12.3,0.1
	l0.2,20.7c0,5.8,2.7,8.2,6.7,8.2c1.7,0,3.5-0.5,4.9-1.1l2.5,11.1c-2.7,0.8-6.4,1.9-11.4,2c-12.7,0.1-17.8-7.9-17.9-19.8
	L-185.5,332.2z"/>
</svg>
