<?xml version="1.0" encoding="UTF-8" standalone="no"?>
<svg width="366px" height="255px" viewBox="0 0 366 255" version="1.1" xmlns="http://www.w3.org/2000/svg" xmlns:xlink="http://www.w3.org/1999/xlink">
    <!-- Generator: Sketch 46.1 (44463) - http://www.bohemiancoding.com/sketch -->
    <title>Litteratur_grafik</title>
    <desc>Created with Sketch.</desc>
    <defs>
        <polygon id="path-1" points="0.049274649 54.0839618 46.1819698 54.0839618 46.1819698 0.0132849422 0.049274649 0.0132849422 0.049274649 54.0839618"></polygon>
        <polygon id="path-3" points="18.4564899 0.0368263778 18.4564899 19.2750518 9.2309589 19.2750518 0.00542792325 19.2750518 0.00542792325 0.0368263778 18.4564899 0.0368263778"></polygon>
    </defs>
    <g id="Symbols" stroke="none" stroke-width="1" fill="none" fill-rule="evenodd" opacity="0.0968400187">
        <g id="Litteratur_grafik">
            <g id="Litteratur-grafik-footer">
                <polygon id="Fill-1" fill="#000000" points="0 0 0 67 43 67 43 54.2496616 15.6028662 54.2496616 15.6028662 0"></polygon>
                <g id="Group-24" transform="translate(2.000000, 54.000000)">
                    <path d="M48.5323151,7.91964386 C48.5323151,3.24465863 52.2636246,0.0102844908 57.3441608,0.0102844908 C62.527052,0.0102844908 66.1482523,3.24465863 66.1482523,7.91964386 C66.1482523,12.5930733 62.527052,15.930126 57.3441608,15.930126 C52.2636246,15.930126 48.5323151,12.5930733 48.5323151,7.91964386 L48.5323151,7.91964386 Z M49.7714324,75.0963035 L65.0083884,75.0963035 L65.0083884,23.5158924 L49.7714324,23.5158924 L49.7714324,75.0963035 Z" id="Fill-2" fill="#000000"></path>
                    <g id="Group-6" transform="translate(69.334640, 146.845364)">
                        <mask id="mask-2" fill="white">
                            <use xlink:href="#path-1"></use>
                        </mask>
                        <g id="Clip-5"></g>
                        <path d="M24.3074391,0.0132849422 C38.924061,0.0132849422 46.1819698,10.7323027 46.1819698,24.7681485 C46.1819698,27.4611267 45.8702519,29.9674166 45.558534,31.2213394 L14.7698025,31.2213394 C16.1174783,39.0077957 21.3034713,42.4459712 28.1442054,42.4459712 C31.9763192,42.4459712 35.5060201,41.2947269 39.2357788,39.0077957 L44.3132133,48.2737564 C39.0295178,51.8970644 32.1872328,54.0844286 26.067637,54.0844286 C11.3517617,54.0844286 0.049274649,44.1090524 0.049274649,27.0550797 C0.049274649,10.3106983 11.9720958,0.0132849422 24.3074391,0.0132849422 L24.3074391,0.0132849422 Z M33.2231907,21.7531331 C33.2231907,15.8304479 30.735651,11.6641882 24.6207078,11.6641882 C19.8518895,11.6641882 15.7018545,14.8845607 14.6689982,21.7531331 L33.2231907,21.7531331 Z" id="Fill-4" fill="#000000" mask="url(#mask-2)"></path>
                    </g>
                    <path d="M118.445517,97.0964261 L130.881665,96.9984148 L131.990512,106.034127 L132.404585,106.031015 C136.081615,99.0379841 141.655317,95.6589265 146.940564,95.6184774 C149.843727,95.5951414 151.610128,96.0042998 153.063261,96.6188153 L150.679627,109.845679 C148.810871,109.340065 147.250731,109.028918 145.07646,109.046031 C141.241244,109.07559 136.491036,111.620773 133.848413,118.595135 L134.082589,148.553934 L118.848735,148.673726 L118.445517,97.0964261 Z" id="Fill-7" fill="#000000"></path>
                    <path d="M183.407988,114.264279 C183.099372,109.693528 180.816543,106.779635 175.326586,106.779635 C170.97029,106.779635 166.613994,108.540728 161.638914,111.453065 L156.248211,101.362564 C162.777228,97.4156631 170.139042,94.6028932 178.225097,94.6028932 C191.391688,94.6028932 198.649597,102.089093 198.649597,117.9047 L198.649597,147.437227 L186.210348,147.437227 L185.065831,142.136836 L184.758766,142.136836 C180.40247,145.98417 175.532847,148.674037 169.724969,148.674037 C160.393594,148.674037 154.484912,141.813243 154.484912,133.077788 C154.484912,122.271649 163.090496,116.344297 183.407988,114.264279 M175.072249,136.164368 C178.597298,136.13792 180.866169,134.459281 183.538259,131.744523 L183.468471,122.685475 C172.594014,124.228765 169.09533,127.37135 169.126347,131.33692 C169.152711,134.653748 171.449498,136.193927 175.072249,136.164368" id="Fill-9" fill="#000000"></path>
                    <path d="M204.935597,40.4578522 L197.887051,40.4578522 L197.887051,29.1289862 L205.762192,28.5020247 L207.525492,14.7679916 L220.172553,14.7679916 L220.172553,28.5020247 L232.507897,28.5020247 L232.507897,40.4578522 L220.172553,40.4578522 L220.172553,61.152246 C220.172553,66.9769198 222.767101,69.3649738 226.807026,69.3649738 C228.467971,69.3649738 230.333626,68.8546926 231.681301,68.3304097 L234.064935,79.4570301 C231.368033,80.2862372 227.636723,81.3208013 222.661644,81.3208013 C209.910677,81.3208013 204.935597,73.3243207 204.935597,61.3544916 L204.935597,40.4578522 Z" id="Fill-11" fill="#000000"></path>
                    <path d="M247.495013,95.8566605 L262.731969,95.8566605 L262.731969,125.913471 C262.731969,133.295436 264.70308,135.685045 269.160181,135.685045 C272.996947,135.685045 275.279777,134.025076 278.285295,129.961494 L278.285295,95.8566605 L293.5207,95.8566605 L293.5207,147.437072 L281.083002,147.437072 L279.943138,140.255796 L279.63142,140.255796 C275.279777,145.455065 270.509408,148.673881 263.45776,148.673881 C252.265382,148.673881 247.495013,140.781635 247.495013,127.876809 L247.495013,95.8566605 Z" id="Fill-13" fill="#000000"></path>
                    <path d="M303.051668,148.112105 L315.489367,148.112105 L316.528426,157.155596 L316.940949,157.155596 C320.672258,150.193679 326.272324,146.858182 331.55757,146.858182 C334.460734,146.858182 336.225584,147.281342 337.672514,147.908304 L335.188076,161.116498 C333.32087,160.593771 331.763832,160.270178 329.589561,160.270178 C325.752794,160.270178 320.985527,162.77958 318.288624,169.732162 L318.288624,199.692516 L303.051668,199.692516 L303.051668,148.112105 Z" id="Fill-15" fill="#000000"></path>
                    <g id="Group-19" transform="translate(345.470423, 181.654274)">
                        <mask id="mask-4" fill="white">
                            <use xlink:href="#path-3"></use>
                        </mask>
                        <g id="Clip-18"></g>
                        <path d="M9.23134661,0.0368263778 C14.516593,0.0368263778 18.4572653,4.20153036 18.4572653,9.7228357 C18.4572653,15.1259052 14.516593,19.2750518 9.23134661,19.2750518 C3.94765104,19.2750518 0.00542792325,15.1259052 0.00542792325,9.7228357 C0.00542792325,4.20153036 3.94765104,0.0368263778 9.23134661,0.0368263778" id="Fill-17" fill="#000000" mask="url(#mask-4)"></path>
                    </g>
                    <path d="M7.27684163,107.951571 L0.228295581,108.007577 L0.139897974,96.6787111 L8.01038668,95.991076 L9.66667869,82.2430413 L22.312189,82.1434742 L22.4191967,95.8775074 L34.7545399,95.7810517 L34.8475901,107.735323 L22.5122468,107.831779 L22.6750845,128.526173 C22.7200587,134.350847 25.3347669,136.718676 29.3731418,136.687561 C31.0356371,136.67356 32.8981902,136.147721 34.2396627,135.612548 L36.7101432,146.7205 C34.0209949,147.569931 30.2974395,148.634054 25.3208093,148.674504 C12.5729439,148.774071 7.53428027,140.818039 7.43967933,128.846654 L7.27684163,107.951571 Z" id="Fill-20" fill="#000000"></path>
                    <path d="M49.5273309,107.951571 L42.4787849,108.007577 L42.3903873,96.6787111 L50.260876,95.991076 L51.917168,82.2430413 L64.5626783,82.1434742 L64.669686,95.8775074 L77.0050293,95.7810517 L77.0980794,107.735323 L64.7627361,107.831779 L64.9255738,128.526173 C64.970548,134.350847 67.5852562,136.718676 71.6236311,136.687561 C73.2861264,136.67356 75.1486795,136.147721 76.490152,135.612548 L78.9606325,146.7205 C76.2714842,147.569931 72.5479289,148.634054 67.5712987,148.674504 C54.8234332,148.774071 49.7847696,140.818039 49.6901686,128.846654 L49.5273309,107.951571 Z" id="Fill-22" fill="#000000"></path>
                </g>
            </g>
        </g>
    </g>
</svg>