<?xml version="1.0" encoding="UTF-8"?>
<svg width="136px" height="137px" viewBox="0 0 136 137" version="1.1" xmlns="http://www.w3.org/2000/svg" xmlns:xlink="http://www.w3.org/1999/xlink">
    <!-- Generator: Sketch 46.2 (44496) - http://www.bohemiancoding.com/sketch -->
    <title>Speech bobble</title>
    <desc>Created with Sketch.</desc>
    <defs>
        <polygon id="path-1" points="0 136.685714 0 0.571057143 135.431938 0.571057143 135.431938 136.685714"></polygon>
    </defs>
    <g id="Symbols" stroke="none" stroke-width="1" fill="none" fill-rule="evenodd">
        <g id="Anmeld-bogen" transform="translate(-107.000000, -36.000000)">
            <g id="bog-1">
                <g>
                    <g id="Speech-bobble" transform="translate(107.000000, 36.000000)">
                        <mask id="mask-2" fill="white">
                            <use xlink:href="#path-1"></use>
                        </mask>
                        <g id="Clip-2"></g>
                        <path d="M41.1041692,111.558543 C49.0771692,116.562029 58.2663231,119.202429 67.7157077,119.202429 C95.4636308,119.202429 118.038323,96.5152286 118.038323,68.6274 C118.038323,40.7408857 95.4636308,18.0523714 67.7157077,18.0523714 C39.9677846,18.0523714 17.3944,40.7408857 17.3944,68.6274 C17.3944,77.625 19.7730923,86.4438571 24.2767846,94.1692286 L18.5386308,115.695914 L17.9802462,117.785629 L20.0594769,117.225743 L41.1041692,111.558543 Z M67.7157077,136.686371 C55.5999385,136.686371 43.7077846,133.425629 33.3247077,127.260314 L32.8748615,126.993514 L32.3700923,127.1302 L0.580092308,135.690143 L9.1494,103.544029 L9.28409231,103.043286 L9.02647692,102.596429 C3.12093846,92.3134571 -0.000523076923,80.5663714 -0.000523076923,68.6274 C-0.000523076923,31.1006 30.3771692,0.571057143 67.7157077,0.571057143 C105.055554,0.571057143 135.431938,31.1006 135.431938,68.6274 C135.431938,106.155514 105.055554,136.686371 67.7157077,136.686371 L67.7157077,136.686371 Z" id="Fill-1" fill="#FFFFFF" mask="url(#mask-2)" transform="translate(67.715708, 68.628714) scale(-1, 1) translate(-67.715708, -68.628714) "></path>
                        <path d="M66.8496849,64.1179337 C66.8496849,60.5602655 64.4721456,55.5 58.5359153,55.5 C57.9673907,55.5 57.4229222,55.5594846 56.900906,55.6760092 C52.9557144,56.3971582 49.9615385,59.9010457 49.9615385,64.1179337 C49.9615385,68.1058466 52.6381746,71.4565409 56.2650245,72.4197026 C56.468699,72.4979289 56.6763829,72.5720809 56.8912836,72.6429736 C56.6130353,75.5422368 53.6477266,79.5 53.6477266,79.5 C57.2304738,78.8350762 66.8496849,72.8955794 66.8496849,64.1179337 M71.8365033,79.5 C71.8365033,79.5 74.8010101,75.5422368 75.0792583,72.6429736 C74.8643577,72.5720809 74.6566738,72.4979289 74.4529993,72.4197026 C70.8253475,71.4565409 68.1503151,68.1058466 68.1503151,64.1179337 C68.1503151,59.9010457 71.1436892,56.3971582 75.0888808,55.6760092 C75.610897,55.5594846 76.1553655,55.5 76.72389,55.5 C82.6609223,55.5 85.0384615,60.5602655 85.0384615,64.1179337 C85.0384615,72.8955794 75.4184486,78.8350762 71.8365033,79.5" id="Fill-4" fill="#FFFFFF" mask="url(#mask-2)"></path>
                    </g>
                </g>
            </g>
        </g>
    </g>
</svg>