<?xml version="1.0" encoding="UTF-8"?>
<svg width="197px" height="20px" viewBox="0 0 197 20" version="1.1" xmlns="http://www.w3.org/2000/svg" xmlns:xlink="http://www.w3.org/1999/xlink">
    <!-- Generator: Sketch 47.1 (45422) - http://www.bohemiancoding.com/sketch -->
    <title>logo</title>
    <desc>Created with Sketch.</desc>
    <defs>
        <polygon id="path-1" points="-4.67933492e-05 14.3389561 14.917439 14.3389561 14.917439 0.000559569019 -4.67933492e-05 0.000559569019"></polygon>
    </defs>
    <g id="Page-1" stroke="none" stroke-width="1" fill="none" fill-rule="evenodd">
        <g id="logo">
            <polygon id="Fill-1" fill="#FFFFFF" points="23 2 26.9918182 2 26.9918182 15.764489 34 15.764489 34 19 23 19"></polygon>
            <g id="Group-31">
                <path d="M36.191731,2.06315429 C36.191731,0.859847744 37.1584816,0.0271390974 38.4751295,0.0271390974 C39.8185665,0.0271390974 40.7567732,0.859847744 40.7567732,2.06315429 C40.7567732,3.26646083 39.8185665,4.12551585 38.4751295,4.12551585 C37.1584816,4.12551585 36.191731,3.26646083 36.191731,2.06315429 L36.191731,2.06315429 Z M36.5129673,19.3573343 L40.4615071,19.3573343 L40.4615071,6.07864488 L36.5129673,6.07864488 L36.5129673,19.3573343 Z" id="Fill-2" fill="#FFFFFF"></path>
                <path d="M61.1575153,16.3315814 C60.8094897,16.466694 60.3262314,16.5980761 59.8950307,16.5980761 C58.8473276,16.5980761 58.1757261,15.9832497 58.1757261,14.4834881 L58.1757261,9.15627449 L61.3718288,9.15627449 L61.3718288,6.07864488 L58.1757261,6.07864488 L58.1757261,2.54286814 L54.8990218,2.54286814 L54.4419678,6.07864488 L48.283963,6.07864488 L48.283963,2.54286814 L45.0072587,2.54286814 L44.5499707,6.07864488 L42.5090788,6.23963755 L42.5090788,9.15627449 L44.3356572,9.15627449 L44.3356572,14.5353648 C44.3356572,17.6173078 45.6241121,19.6757057 48.9293603,19.6757057 C50.2178151,19.6757057 51.1846827,19.4090944 51.8847112,19.1958753 L51.2656352,16.3315814 C50.9176097,16.466694 50.4343514,16.5980761 50.0035016,16.5980761 C48.9554476,16.5980761 48.283963,15.9832497 48.283963,14.4834881 L48.283963,9.15627449 L54.2275372,9.15627449 L54.2275372,14.5353648 C54.2275372,17.6173078 55.5156412,19.6757057 58.8212403,19.6757057 C60.1096952,19.6757057 61.0764458,19.4090944 61.7762403,19.1958753 L61.1575153,16.3315814 Z" id="Fill-4" fill="#FFFFFF"></path>
                <path d="M69.0879351,5.75586682 C72.8756227,5.75586682 74.7568324,8.51512497 74.7568324,12.1287751 C74.7568324,12.821708 74.6758799,13.4670776 74.5949274,13.789879 L66.6160764,13.789879 C66.9652718,15.7948847 68.3094107,16.6798198 70.0821768,16.6798198 C71.0753656,16.6798198 71.9898246,16.3833648 72.9565752,15.7948847 L74.2725212,18.1795814 C72.9031138,19.1126627 71.1299969,19.6756125 69.5440533,19.6756125 C65.7302783,19.6756125 62.8013656,17.107657 62.8013656,12.7172551 C62.8013656,8.4070582 65.8911305,5.75586682 69.0879351,5.75586682 L69.0879351,5.75586682 Z M71.3981227,11.3526062 C71.3981227,9.82801378 70.7536613,8.75538991 69.1688876,8.75538991 C67.9331922,8.75538991 66.8578811,9.58413495 66.5901061,11.3526062 L71.3981227,11.3526062 Z" id="Fill-6" fill="#FFFFFF"></path>
                <path d="M77.3700537,6.07867986 L80.5931796,6.07867986 L80.8621244,8.40706986 L80.9693982,8.40706986 C81.9362657,6.61458377 83.3876784,5.75587848 84.7572028,5.75587848 C85.5096398,5.75587848 85.9668109,5.86476128 86.3419765,6.02610368 L85.6976321,9.42641809 C85.2143738,9.29212152 84.8105472,9.20888563 84.2471553,9.20888563 C83.2532645,9.20888563 82.0172182,9.85437181 81.3182426,11.6446429 L81.3182426,19.3573692 L77.3700537,19.3573692 L77.3700537,6.07867986 Z" id="Fill-8" fill="#FFFFFF"></path>
                <path d="M94.1654502,10.8174017 C94.0856675,9.64044158 93.4939656,8.89050252 92.0709799,8.89050252 C90.9423243,8.89050252 89.8135517,9.34398658 88.524044,10.0938091 L87.1270286,7.49589331 C88.8191931,6.47957608 90.7268409,5.75586682 92.8224811,5.75586682 C96.2345351,5.75586682 98.1151598,7.68288263 98.1151598,11.7542135 L98.1151598,19.3573576 L94.891566,19.3573576 L94.5952471,17.9927086 L94.5153474,17.9927086 C93.3865749,18.9827961 92.1245583,19.675729 90.6194502,19.675729 C88.2012869,19.675729 86.6698575,17.9094728 86.6698575,15.6605882 C86.6698575,12.8785975 88.9002625,11.3526062 94.1654502,10.8174017 M91.9625363,16.6236298 C92.8759425,16.6236298 93.4675274,16.1964921 94.1654502,15.5028597 L94.1654502,13.1707392 C91.3445131,13.5460002 90.4312239,14.3476994 90.4312239,15.3684465 C90.4312239,16.2227219 91.0232768,16.6236298 91.9625363,16.6236298" id="Fill-10" fill="#FFFFFF"></path>
                <path d="M101.910171,9.1562978 L100.083475,9.1562978 L100.083475,6.23966087 L102.124484,6.0786682 L102.581655,2.54289146 L105.85871,2.54289146 L105.85871,6.0786682 L109.055515,6.0786682 L109.055515,9.1562978 L105.85871,9.1562978 L105.85871,14.4835114 C105.85871,15.983273 106.531365,16.5980994 107.578015,16.5980994 C108.008865,16.5980994 108.492357,16.4666007 108.841201,16.3316047 L109.459225,19.1960152 C108.760249,19.4092343 107.793381,19.6756125 106.503757,19.6756125 C103.199678,19.6756125 101.910171,17.6173311 101.910171,14.5353881 L101.910171,9.1562978 Z" id="Fill-12" fill="#FFFFFF"></path>
                <path d="M111.398329,6.07867986 L115.346869,6.07867986 L115.346869,13.8161205 C115.346869,15.7167899 115.857502,16.3316164 117.012712,16.3316164 C118.006954,16.3316164 118.598539,15.9044787 119.377414,14.8580846 L119.377414,6.07867986 L123.325603,6.07867986 L123.325603,19.3573692 L120.102477,19.3573692 L119.807211,17.5084599 L119.726259,17.5084599 C118.598539,18.8469957 117.362493,19.6757407 115.535095,19.6757407 C112.634376,19.6757407 111.398329,17.6436891 111.398329,14.3214812 L111.398329,6.07867986 Z" id="Fill-14" fill="#FFFFFF"></path>
                <path d="M126.666087,6.07867986 L129.889213,6.07867986 L130.158508,8.40706986 L130.265548,8.40706986 C131.232182,6.61458377 132.683711,5.75587848 134.053119,5.75587848 C134.805556,5.75587848 135.262844,5.86476128 135.637893,6.02610368 L134.993899,9.42641809 C134.510407,9.29212152 134.106697,9.20888563 133.543188,9.20888563 C132.54883,9.20888563 131.313602,9.85437181 130.61451,11.6446429 L130.61451,19.3573692 L126.666087,19.3573692 L126.666087,6.07867986 Z" id="Fill-16" fill="#FFFFFF"></path>
                <path d="M137.551144,15.3684582 C138.759231,16.2797396 139.860513,16.7586375 140.989753,16.7586375 C142.172338,16.7586375 142.68145,16.3314998 142.68145,15.6342535 C142.68145,14.7536317 141.338481,14.347711 139.969073,13.8161205 C138.357042,13.1969807 136.449862,12.1024403 136.449862,9.90683141 C136.449862,7.4433288 138.464082,5.75587848 141.553964,5.75587848 C143.59509,5.75587848 145.100081,6.5887037 146.254824,7.4433288 L144.481824,9.80167906 C143.51519,9.10373329 142.601667,8.67729506 141.661589,8.67729506 C140.641026,8.67729506 140.156598,9.05185658 140.156598,9.71855975 C140.156598,10.5778479 141.391825,10.8955199 142.76287,11.405194 C144.454684,12.0199039 146.361864,12.9575317 146.361864,15.3948046 C146.361864,17.805731 144.454684,19.6756241 140.882713,19.6756241 C139.135918,19.6756241 137.120996,18.930115 135.778027,17.8312613 L137.551144,15.3684582 Z" id="Fill-18" fill="#FFFFFF"></path>
                <path d="M148.411974,2.06315429 C148.411974,0.859847744 149.378373,0.0271390974 150.69584,0.0271390974 C152.038926,0.0271390974 152.978186,0.859847744 152.978186,2.06315429 C152.978186,3.26646083 152.038926,4.12551585 150.69584,4.12551585 C149.378373,4.12551585 148.411974,3.26646083 148.411974,2.06315429 L148.411974,2.06315429 Z M148.73438,19.3573343 L152.68292,19.3573343 L152.68292,6.07864488 L148.73438,6.07864488 L148.73438,19.3573343 Z" id="Fill-20" fill="#FFFFFF"></path>
                <path d="M160.854021,5.75586682 C162.331872,5.75586682 163.21767,6.29223704 164.131427,7.15082575 L163.970224,5.11481056 L163.970224,0.589645854 L167.919466,0.589645854 L167.919466,19.3573576 L164.695638,19.3573576 L164.427395,18.0451682 L164.319069,18.0451682 C163.379692,18.9826795 162.062927,19.6756125 160.77342,19.6756125 C157.468873,19.6756125 155.319889,17.0551974 155.319889,12.7172551 C155.319889,8.3808284 158.033903,5.75586682 160.854021,5.75586682 M161.794801,16.4666007 C162.654278,16.4666007 163.326114,16.1439159 163.970224,15.2590974 L163.970224,9.82801378 C163.271249,9.1825276 162.492373,8.96930849 161.767778,8.96930849 C160.504475,8.96930849 159.376872,10.1463852 159.376872,12.665495 C159.376872,15.2852106 160.26267,16.4666007 161.794801,16.4666007" id="Fill-22" fill="#FFFFFF"></path>
                <path d="M176.659235,5.75586682 C180.446572,5.75586682 182.327314,8.51512497 182.327314,12.1287751 C182.327314,12.821708 182.246829,13.4670776 182.166228,13.789879 L174.187143,13.789879 C174.53587,15.7948847 175.88036,16.6798198 177.652775,16.6798198 C178.6469,16.6798198 179.560774,16.3833648 180.527057,15.7948847 L181.843119,18.1795814 C180.473595,19.1126627 178.700595,19.6756125 177.114886,19.6756125 C173.301228,19.6756125 170.371847,17.107657 170.371847,12.7172551 C170.371847,8.4070582 173.461729,5.75586682 176.659235,5.75586682 L176.659235,5.75586682 Z M178.968604,11.3526062 C178.968604,9.82801378 178.324611,8.75538991 176.73972,8.75538991 C175.50379,8.75538991 174.42883,9.58413495 174.160704,11.3526062 L178.968604,11.3526062 Z" id="Fill-24" fill="#FFFFFF"></path>
                <path d="M184.940944,6.07867986 L188.16407,6.07867986 L188.433132,7.76613018 L188.540055,7.76613018 C189.669061,6.69315658 191.012148,5.75587848 192.810884,5.75587848 C195.713124,5.75587848 196.948586,7.79235998 196.948586,11.108739 L196.948586,19.3573692 L192.999227,19.3573692 L192.999227,11.6184131 C192.999227,9.69221337 192.489999,9.10373329 191.360992,9.10373329 C190.366633,9.10373329 189.749078,9.55791681 188.888665,10.3902757 L188.888665,19.3573692 L184.940944,19.3573692 L184.940944,6.07867986 Z" id="Fill-26" fill="#FFFFFF"></path>
                <g id="Group-30" transform="translate(0.000000, 5.362536)">
                    <mask id="mask-2" fill="white">
                        <use xlink:href="#path-1"></use>
                    </mask>
                    <g id="Clip-29"></g>
                    <polygon id="Fill-28" fill="#FFFFFF" mask="url(#mask-2)" points="5.56379941 2.1165465 9.59551437 5.65209008 -4.67933492e-05 5.65209008 -4.67933492e-05 8.75921364 9.59551437 8.75921364 5.56379941 12.2947572 7.44524299 14.4107441 14.917439 7.25921893 14.917439 7.15208478 7.44524299 0.000559569019"></polygon>
                </g>
            </g>
        </g>
    </g>
</svg>